<?xml version="1.0" standalone="no"?>
<!DOCTYPE svg PUBLIC "-//W3C//DTD SVG 20010904//EN"
 "http://www.w3.org/TR/2001/REC-SVG-20010904/DTD/svg10.dtd">
<svg version="1.0" xmlns="http://www.w3.org/2000/svg"
 width="438.000000pt" height="628.000000pt" viewBox="0 0 438.000000 628.000000"
 preserveAspectRatio="xMidYMid meet">

<g transform="translate(0.000000,628.000000) scale(0.100000,-0.100000)"
fill="#000000" stroke="none">
<path d="M398 6210 c-103 -18 -198 -94 -246 -199 -72 -156 10 -357 176 -434
37 -17 66 -22 132 -22 74 0 92 4 144 30 113 57 186 173 186 293 -1 214 -181
367 -392 332z m-103 -249 c7 -12 -12 -24 -25 -16 -11 7 -4 25 10 25 5 0 11 -4
15 -9z m-45 -43 c0 -6 -7 -20 -16 -30 -16 -16 -16 -18 0 -24 28 -11 18 -24
-19 -24 -35 0 -49 20 -24 36 6 3 8 17 5 30 -6 21 -3 24 24 24 16 0 30 -5 30
-12z m40 -33 c0 -25 -4 -45 -10 -45 -5 0 -10 20 -10 45 0 25 5 45 10 45 6 0
10 -20 10 -45z m98 -2 c2 -34 0 -43 -12 -43 -12 0 -16 10 -16 36 0 21 -4 33
-10 29 -5 -3 -10 -19 -10 -36 0 -19 -5 -29 -15 -29 -11 0 -15 12 -15 45 l0 44
38 -2 c36 -2 37 -3 40 -44z m140 35 c7 -7 12 -27 12 -45 0 -31 -2 -33 -35 -33
-46 0 -58 25 -24 51 15 12 17 17 7 13 -18 -6 -25 6 -11 19 10 11 38 8 51 -5z
m100 0 c29 -24 2 -88 -32 -75 -10 4 -14 0 -11 -14 2 -12 -2 -19 -11 -19 -11 0
-14 14 -14 59 0 57 1 59 28 59 15 0 33 -5 40 -10z m100 0 c29 -24 2 -88 -33
-74 -10 4 -15 -1 -15 -14 0 -11 -4 -20 -10 -20 -6 0 -10 26 -10 59 0 57 1 59
28 59 15 0 33 -5 40 -10z m-287 -63 c-1 -15 -24 -12 -29 3 -3 9 2 13 12 10 10
-1 17 -7 17 -13z"/>
<path d="M490 5870 c0 -5 5 -10 10 -10 6 0 10 5 10 10 0 6 -4 10 -10 10 -5 0
-10 -4 -10 -10z"/>
<path d="M584 5896 c-4 -10 -2 -22 4 -28 8 -8 13 -7 18 6 4 10 2 22 -4 28 -8
8 -13 7 -18 -6z"/>
<path d="M680 5886 c0 -9 7 -16 16 -16 17 0 14 22 -4 28 -7 2 -12 -3 -12 -12z"/>
</g>
</svg>
