<?xml version="1.0" standalone="no"?>
<!DOCTYPE svg PUBLIC "-//W3C//DTD SVG 20010904//EN"
 "http://www.w3.org/TR/2001/REC-SVG-20010904/DTD/svg10.dtd">
<svg version="1.0" xmlns="http://www.w3.org/2000/svg"
 width="664.000000pt" height="444.000000pt" viewBox="0 0 664.000000 444.000000"
 preserveAspectRatio="xMidYMid meet">

<g transform="translate(0.000000,444.000000) scale(0.100000,-0.100000)"
fill="#000000" stroke="none">
<path d="M0 2220 l0 -2220 3320 0 3320 0 0 2220 0 2220 -3320 0 -3320 0 0
-2220z m3373 1388 c26 -13 57 -68 57 -101 0 -60 -60 -117 -123 -117 -32 0 -89
39 -105 74 -17 34 -9 85 19 120 33 41 98 52 152 24z m-421 -147 c105 -22 250
-129 244 -180 -2 -14 -1 -18 1 -8 2 9 7 17 11 17 21 0 96 -166 105 -230 2 -18
6 -10 15 28 13 57 60 162 73 162 4 0 10 9 14 19 10 33 103 117 164 150 48 25
155 61 183 61 4 0 8 -19 8 -43 0 -197 -113 -379 -287 -464 -73 -35 -84 -38
-168 -38 -82 0 -96 3 -160 34 -84 41 -190 142 -229 218 -36 72 -56 155 -56
231 0 48 3 63 13 59 7 -2 38 -10 69 -16z m1456 -836 c29 -16 52 -31 52 -35 0
-3 -18 -23 -39 -44 l-40 -39 -41 17 c-52 21 -85 20 -136 -3 -84 -38 -120 -147
-75 -228 44 -78 141 -110 218 -71 31 16 31 15 72 -26 40 -41 41 -43 23 -59
-59 -53 -199 -68 -283 -30 -57 25 -118 84 -144 138 -23 48 -31 155 -16 211 22
81 96 156 188 190 60 22 159 13 221 -21z m-2348 -45 l0 -60 -105 0 -105 0 0
-50 0 -50 75 0 75 0 0 -60 0 -60 -75 0 -75 0 0 -110 0 -110 -70 0 -70 0 0 280
0 280 175 0 175 0 0 -60z m170 -220 l0 -280 -70 0 -70 0 0 280 0 280 70 0 70
0 0 -280z m240 122 l155 -120 3 139 3 139 69 0 70 0 0 -281 0 -280 -27 20
c-16 11 -98 71 -183 134 l-155 115 -3 -134 -3 -134 -69 0 -70 0 0 281 0 280
28 -19 c15 -11 97 -74 182 -140z m1170 0 l155 -120 3 139 3 139 69 0 70 0 0
-281 0 -280 -27 20 c-16 11 -98 71 -183 134 l-155 115 -3 -134 -3 -134 -69 0
-70 0 0 281 0 280 28 -19 c15 -11 97 -74 182 -140z m1290 98 l0 -60 -130 0
-130 0 0 -50 0 -50 110 0 110 0 0 -60 0 -60 -110 0 -110 0 0 -50 0 -50 130 0
130 0 0 -60 0 -60 -195 0 -195 0 0 280 0 280 195 0 195 0 0 -60z m-1720 -142
c57 -106 123 -230 148 -275 l44 -83 -80 0 -79 0 -18 40 -18 40 -107 0 -107 0
-18 -40 -18 -40 -79 0 -80 0 39 73 c22 39 88 163 148 275 60 111 112 202 115
202 4 0 53 -87 110 -192z m728 -529 l44 -22 -29 -29 c-26 -26 -32 -28 -59 -18
-40 16 -86 5 -116 -28 -34 -36 -42 -74 -24 -116 19 -45 52 -66 103 -66 33 0
50 7 75 30 l33 29 -48 1 -48 0 3 38 3 37 83 3 82 3 0 -111 0 -110 -34 0 c-19
0 -36 5 -38 12 -3 9 -12 9 -38 -2 -92 -38 -199 2 -244 92 -14 28 -26 63 -26
77 0 147 148 242 278 180z m-1131 0 c68 -25 116 -97 116 -174 0 -57 -18 -97
-60 -137 -41 -39 -74 -48 -174 -48 l-89 0 0 185 0 185 89 0 c49 0 102 -5 118
-11z m403 -4 c42 -22 60 -53 60 -105 0 -46 -21 -89 -55 -114 -19 -13 -18 -15
6 -52 56 -85 56 -84 0 -84 -49 0 -49 0 -87 60 -29 44 -45 60 -61 60 -21 0 -23
-4 -23 -60 l0 -60 -45 0 -45 0 0 185 0 185 110 0 c79 0 119 -4 140 -15z m180
-99 c0 -105 2 -117 23 -140 32 -36 74 -39 107 -6 18 18 20 33 20 140 l0 120
45 0 45 0 0 -118 c0 -142 -19 -192 -85 -230 -74 -42 -160 -19 -212 58 -21 30
-23 45 -23 161 l0 129 40 0 40 0 0 -114z"/>
<path d="M3072 2305 l-22 -45 50 0 50 0 -22 45 c-12 25 -25 45 -28 45 -3 0
-16 -20 -28 -45z"/>
<path d="M2690 1735 c0 -117 -2 -115 73 -94 40 11 77 56 77 94 0 38 -37 83
-77 94 -75 21 -73 23 -73 -94z"/>
<path d="M3050 1795 l0 -45 58 0 c62 0 82 11 82 45 0 34 -20 45 -82 45 l-58 0
0 -45z"/>
</g>
</svg>
